<?xml version="1.0" standalone="no"?>
<!DOCTYPE svg PUBLIC "-//W3C//DTD SVG 20010904//EN"
 "http://www.w3.org/TR/2001/REC-SVG-20010904/DTD/svg10.dtd">
<svg version="1.0" xmlns="http://www.w3.org/2000/svg"
 width="300.000000pt" height="300.000000pt" viewBox="0 0 300.000000 300.000000"
 preserveAspectRatio="xMidYMid meet">
<metadata>
Created by potrace 1.11, written by Peter Selinger 2001-2013
</metadata>
<g transform="translate(0.000000,300.000000) scale(0.100000,-0.100000)"
fill="#000000" stroke="none">
<path d="M1776 2449 c-26 -11 -65 -22 -85 -25 -20 -3 -79 -26 -130 -50 -52
-25 -113 -49 -135 -54 -22 -5 -42 -14 -44 -19 -2 -6 -32 -24 -67 -40 -71 -33
-83 -45 -58 -60 10 -6 16 -11 13 -12 -3 0 -18 -3 -35 -5 -43 -7 -65 -32 -65
-71 0 -26 -4 -33 -19 -33 -12 0 -23 -11 -30 -30 -5 -16 -16 -30 -23 -30 -7 -1
-2 -7 10 -14 23 -12 23 -13 -25 -34 -46 -20 -47 -21 -18 -23 17 -1 39 -1 50 0
30 3 7 -13 -50 -34 -48 -18 -83 -42 -77 -54 1 -3 -11 -13 -28 -22 -24 -13 -27
-18 -14 -23 8 -3 29 -6 44 -6 45 0 44 -16 -2 -19 -52 -3 -118 -29 -118 -47 0
-8 5 -14 10 -14 25 0 6 -20 -35 -37 -25 -10 -45 -20 -45 -23 0 -3 14 -11 30
-17 37 -14 39 -28 4 -31 -33 -2 -55 -19 -48 -36 3 -7 -14 -34 -37 -60 -35 -39
-41 -51 -32 -65 9 -14 5 -22 -18 -40 -34 -27 -37 -41 -9 -41 29 0 25 -10 -20
-53 -22 -20 -40 -42 -40 -48 0 -6 -10 -24 -21 -41 -19 -26 -27 -29 -62 -26
l-40 4 -55 -116 c-31 -63 -57 -117 -57 -120 -1 -3 -11 -25 -23 -50 l-22 -45
-1 33 c-1 17 -3 50 -4 72 -1 22 -3 63 -4 91 -1 30 -5 48 -11 44 -5 -3 -10 -1
-10 4 0 10 -125 8 -245 -4 -16 -1 -40 -3 -53 -4 -18 -1 -21 -6 -17 -24 2 -12
7 -38 10 -57 2 -19 7 -45 9 -56 2 -12 7 -37 10 -55 3 -19 8 -45 11 -59 2 -14
11 -63 19 -110 25 -140 27 -145 44 -155 29 -17 227 -73 234 -66 6 5 224 290
270 353 9 13 24 32 33 43 8 11 36 47 61 80 25 33 50 67 57 75 66 81 61 85
-108 106 -109 13 -24 25 217 31 217 6 228 5 272 -16 25 -11 58 -21 73 -21 29
0 163 -23 223 -39 31 -8 28 -9 -35 -11 -38 -1 -79 -3 -90 -5 -11 -2 -42 -6
-70 -9 -120 -13 -190 -38 -222 -79 -54 -69 20 -134 182 -162 133 -23 198 -78
124 -104 -64 -22 -169 -7 -255 37 l-42 21 -56 -82 c-31 -45 -56 -85 -56 -89 0
-10 83 -57 138 -78 92 -35 269 -42 374 -15 169 44 250 141 217 260 -28 100
-131 153 -325 168 -15 1 -29 8 -31 14 -9 25 72 29 175 7 l32 -6 0 55 c0 35 -5
57 -12 61 -7 3 16 3 52 -1 77 -6 140 -37 141 -67 9 -324 19 -479 30 -493 10
-11 38 -13 143 -8 72 3 173 6 224 7 74 2 92 6 93 18 6 95 3 136 -12 147 -11 8
-48 11 -117 8 -77 -3 -100 -2 -97 8 2 6 6 37 9 67 4 30 9 74 12 97 l6 42 32
-16 c43 -23 54 -24 61 -3 6 20 -42 130 -66 150 -3 3 -11 14 -17 26 -10 18 -8
23 14 33 14 6 31 11 39 11 22 0 134 40 185 66 65 33 100 67 104 102 6 47 -39
80 -157 116 -118 36 -270 223 -252 308 4 15 29 62 57 104 27 42 73 122 102
178 29 56 64 118 79 139 28 42 43 111 32 154 -17 71 -61 99 -167 108 -78 6
-116 13 -139 25 -24 14 -46 11 -103 -11z m-675 -608 c-8 -5 -20 -7 -28 -4 -21
8 -15 13 15 13 20 0 23 -3 13 -9z"/>
<path d="M2847 963 c-16 -4 -18 -17 -16 -135 1 -115 3 -132 21 -150 16 -16 29
-19 63 -15 24 3 54 11 65 17 21 11 21 12 4 31 -13 14 -27 19 -49 16 -29 -4
-31 -2 -30 27 1 27 5 31 28 32 40 1 56 20 35 40 -9 9 -27 17 -40 18 -19 1 -23
6 -23 35 0 26 5 35 19 37 11 2 31 6 44 9 23 6 24 7 7 25 -18 20 -79 26 -128
13z"/>
<path d="M2574 940 c-28 -11 -31 -25 -28 -158 1 -92 5 -116 19 -132 35 -39 46
-25 57 68 l3 22 26 -24 c53 -49 154 -80 154 -47 0 14 -6 18 -67 45 -21 8 -38
20 -38 26 0 5 3 9 8 9 20 -4 70 25 84 49 40 69 -28 139 -145 147 -28 2 -62 -1
-73 -5z m150 -69 c24 -26 0 -62 -57 -83 l-47 -18 0 60 c0 57 1 59 28 62 37 5
58 -1 76 -21z"/>
<path d="M2324 800 c2 -125 5 -142 22 -154 59 -44 203 106 145 151 -14 12 -13
15 12 34 62 47 9 100 -108 105 l-74 3 3 -139z m134 78 c-3 -7 -18 -21 -35 -31
l-31 -17 2 30 c1 27 4 30 34 30 22 0 32 -4 30 -12z m-30 -133 c-6 -13 -17 -26
-24 -29 -21 -8 -18 41 3 53 25 14 34 4 21 -24z"/>
<path d="M2221 917 c-6 -8 -8 -24 -6 -38 3 -13 6 -70 6 -126 2 -85 5 -105 20
-119 15 -14 21 -15 34 -4 13 11 16 36 14 137 -1 112 -3 126 -22 144 -25 23
-31 23 -46 6z"/>
<path d="M707 878 c-26 -34 -57 -113 -85 -209 -14 -49 -14 -59 -1 -71 23 -23
43 -15 62 25 16 34 20 37 61 37 40 0 44 -2 52 -32 9 -31 49 -62 66 -52 14 9 9
52 -18 157 -29 114 -46 150 -81 166 -32 14 -29 16 -56 -21z m58 -107 c3 -19 8
-38 11 -42 7 -11 -37 -22 -47 -12 -5 5 -2 26 8 51 9 23 17 41 19 39 2 -1 6
-18 9 -36z"/>
</g>
</svg>
